# xmcd
#
# Track frame offsets:
#	150
#	25482
#	38782
#	55917
#	73760
#	89887
#	106425
#	124395
#	140867
#	156425
#	175372
#	190372
#	204080
#	219010
#	236720
#
# Disc length: 3339 seconds
#
# Revision: 1
# Processed by: cddbd v1.5.1PL0 Copyright (c) Steve Scherf et al.
# Submitted via: audiograbber 1.82.02
#
DISCID=e90d090f
DTITLE=Various Artist - Sound Choice Country Hits Vol 5
DYEAR=1900
DGENRE=Karaoke
TTITLE0=David Allen Cole - You never even called me by my name
TTITLE1=Lorrie Morgan - What part of no
TTITLE2=Alan Jackson - Mercury Blues
TTITLE3=Dolly Parton - Romeo
TTITLE4=Mary-Chapin Carpenter - The bug
TTITLE5=Pam Tillis - Let that pony run
TTITLE6=Kenny Rogers and Shenna Easton - We've got tonight
TTITLE7=Doug Stone - A juke box with a country song
TTITLE8=Billy Dean - Somewhere in my broken heart
TTITLE9=Doug Supernaw - I don't call him daddy
TTITLE10=Patsy Cline - She's got you
TTITLE11=George Strait - The chair
TTITLE12=Collin Raye - In this life
TTITLE13=Garth Brooks - Friends in low places
TTITLE14=Hank Williams Sr. and Jr. - There's a tear in my beer
EXTD=
EXTT0=
EXTT1=
EXTT2=
EXTT3=
EXTT4=
EXTT5=
EXTT6=
EXTT7=
EXTT8=
EXTT9=
EXTT10=
EXTT11=
EXTT12=
EXTT13=
EXTT14=
PLAYORDER=
